<?xml version="1.0" encoding="UTF-8" standalone="no"?>
<svg
   height="18"
   viewBox="0 0 18 18"
   width="18"
   version="1.1"
   id="svg6"
   sodipodi:docname="folder-open.svg"
   inkscape:version="1.1.1 (26b7af14f2, 2022-01-19)"
   xmlns:inkscape="http://www.inkscape.org/namespaces/inkscape"
   xmlns:sodipodi="http://sodipodi.sourceforge.net/DTD/sodipodi-0.dtd"
   xmlns="http://www.w3.org/2000/svg"
   xmlns:svg="http://www.w3.org/2000/svg">
  <defs
     id="defs10" />
  <sodipodi:namedview
     id="namedview8"
     pagecolor="#ffffff"
     bordercolor="#666666"
     borderopacity="1.0"
     inkscape:pageshadow="2"
     inkscape:pageopacity="0.0"
     inkscape:pagecheckerboard="0"
     showgrid="false"
     inkscape:zoom="32.583333"
     inkscape:cx="11.984655"
     inkscape:cy="11.984655"
     inkscape:window-width="1874"
     inkscape:window-height="1016"
     inkscape:window-x="0"
     inkscape:window-y="0"
     inkscape:window-maximized="1"
     inkscape:current-layer="svg6" />
  <path
     d="M 0,0 H 24 V 24 H 0 Z"
     fill="none"
     id="path2" />
  <path
     d="M 15.4,4.5 H 9 L 7.872,3.4425 C 7.568,3.1575 7.16,3 6.736,3 H 2.6 C 1.72,3 1.008,3.675 1.008,4.5 L 1,13.5 C 1,14.325 1.72,15 2.6,15 H 15.4 C 16.28,15 17,14.325 17,13.5 V 6 C 17,5.175 16.28,4.5 15.4,4.5 Z m -0.8,9 H 3.4 c -0.44,0 -0.8,-0.3375 -0.8,-0.75 v -6 C 2.6,6.3375 2.96,6 3.4,6 h 11.2 c 0.44,0 0.8,0.3375 0.8,0.75 v 6 c 0,0.4125 -0.36,0.75 -0.8,0.75 z"
     id="path4"
     style="stroke-width:0.774597;fill:#b3bbcb;fill-opacity:1"
     inkscape:export-filename="/home/arixion/Workspaces/ngBot/gui/src/main/resources/org/ngbot/app/folder-open.png"
     inkscape:export-xdpi="96"
     inkscape:export-ydpi="96" />
</svg>
